Simulation
nRows=40
nColumns=15
endheader
time  TH_x TH_y TH_z SC_y  SC_z  SC_x  AC_y  AC_z  AC_x  GH_y  GH_z  GH_yy  EL_x  PS_y
0.0  0.000000  0.000000  0.000000  -24.942283240228452  -0.7306099910126413  3.7620441427666536  49.223135334043526  4.119082012169723  -4.333296019024724  21.77872952692326  13.10340996752153  23.4829183004894  27.265608477132027  0.000000
0.039  0.000000  0.000000  0.000000  -24.786859025889754  0.013360934490338502  3.6135551211590835  48.18174686063785  4.530053215128741  -4.346034189527098  21.73853935644564  13.44658946822146  23.585975634573703  26.862446272332996  0.000000
0.078  0.000000  0.000000  0.000000  -24.537903484930688  0.3050739045759831  3.771023288489967  47.539300280526376  4.343791334796154  -4.608357003818842  21.567358580350533  13.542902549672204  23.41525379787431  26.188666721674736  0.000000
0.11699999999999999  0.000000  0.000000  0.000000  -24.335999360698406  0.38780297279966214  4.369009351787539  47.45604371261102  3.952358171352819  -5.16735860345287  21.685414955750037  13.40733977634889  23.216809314952474  25.78650289298482  0.000000
0.156  0.000000  0.000000  0.000000  -24.143550560038047  0.2998281578882216  5.224620047842572  47.313711539513875  3.4895060122986745  -5.681140584494945  22.04312380910495  13.073644671333094  22.734878836349253  25.470712289736124  0.000000
0.195  0.000000  0.000000  0.000000  -24.004242961093194  0.04594856871245671  6.1765465202824466  47.43386325537869  3.070453228067571  -6.143468189257335  22.66758170729373  12.813039154995483  21.73436453967187  25.2006123779442  0.000000
0.23399999999999999  0.000000  0.000000  0.000000  -23.964184050591356  -0.2616427458959749  7.0447604795054986  47.88713098861846  2.753860497474146  -6.471920901478501  23.701677441397088  12.877656745763767  20.139147671082508  25.05118807409338  0.000000
0.273  0.000000  0.000000  0.000000  -24.065805544220176  -0.5314700759603871  7.676884487798995  48.54237399503656  2.5249222631493464  -6.521005028949972  25.178007781337595  13.413372978097582  17.858194608825137  24.97298655578717  0.000000
0.312  0.000000  0.000000  0.000000  -24.293053464984542  -0.7555034664970517  8.012453755913972  49.30458235278732  2.411547227507397  -6.2583125759758556  27.046972550493308  14.433188403057988  14.874608331359983  24.921988722156204  0.000000
0.351  0.000000  0.000000  0.000000  -24.58381701390454  -0.9334664211535711  8.079508154115892  50.11907211754464  2.429283703978883  -5.7388665762506905  29.21659141330139  15.86472520603389  11.277584975716413  24.865569230850664  0.000000
0.39  0.000000  0.000000  0.000000  -24.856828152589166  -1.0537460675048684  7.9389458766203775  50.92350925283764  2.606349922121284  -5.064247166178031  31.559119460432253  17.601825454945786  7.25047752654718  24.834782240592972  0.000000
0.429  0.000000  0.000000  0.000000  -25.053868615076887  -1.098544585837196  7.6745074057271125  51.678708169569525  2.9600576548390762  -4.3380372858554095  33.952588985452536  19.54376738844117  3.0418790696627553  24.864794328148502  0.000000
0.46799999999999997  0.000000  0.000000  0.000000  -25.16311914728393  -1.0667331557109951  7.367546763767171  52.36691062778775  3.477409271741292  -3.6326073349228327  36.27928017536928  21.620348155689452  -1.1312084116342136  24.957952328090315  0.000000
0.507  0.000000  0.000000  0.000000  -25.195092476588474  -0.965610026483426  7.086080801087792  53.00144054131755  4.107210694107  -2.9827214546332126  38.44851430949475  23.79198832700231  -5.136395259806942  25.07773050957042  0.000000
0.546  0.000000  0.000000  0.000000  -25.16064230312217  -0.8056108940515636  6.876253990868773  53.59762558301637  4.797692923865123  -2.403476322972252  40.404631198676  26.0307360711898  -8.920224242391281  25.190433300889612  0.000000
0.585  0.000000  0.000000  0.000000  -25.0806515884645  -0.5925310878442033  6.7627516810862405  54.16066300863093  5.504621008255139  -1.899336583975314  42.14303403158011  28.314918179248096  -12.494342473873074  25.272652076721727  0.000000
0.624  0.000000  0.000000  0.000000  -24.98799788897898  -0.3283029071580096  6.750573030032662  54.679593223854056  6.212628220987459  -1.4704645280058133  43.70183738270813  30.620176208827683  -15.899374064333982  25.324641405251423  0.000000
0.663  0.000000  0.000000  0.000000  -24.92425654507348  -0.01317938957169849  6.831982917407973  55.140839600389775  6.90980014284673  -1.104181850028492  45.13588608293407  32.925436475385624  -19.206156908319716  25.341315224092316  0.000000
0.702  0.000000  0.000000  0.000000  -24.91395027650328  0.35368766039112803  6.988052466047736  55.53319954133089  7.598358960094397  -0.7801124684970185  46.48529118904827  35.213887918932635  -22.45255196386837  25.319228803606734  0.000000
0.741  0.000000  0.000000  0.000000  -24.949195148403305  0.7791142083356486  7.206582221131934  55.86013743605705  8.28452358713916  -0.4767202954976198  47.759879939346916  37.47078302069262  -25.621625650251968  25.254941950717658  0.000000
0.78  0.000000  0.000000  0.000000  -24.998085863247173  1.2661048573553515  7.472443727197815  56.131802820107616  8.979928527894646  -0.1728024995181137  48.92738649994554  39.68654203316769  -28.631658665551484  25.15006483480691  0.000000
0.819  0.000000  0.000000  0.000000  -25.030892840541345  1.8130633300163685  7.766745991776091  56.36086099222958  9.69396428861648  0.15154631822769551  49.94691629103962  41.85433605660145  -31.381701871829122  25.00729162106216  0.000000
0.858  0.000000  0.000000  0.000000  -25.04311522315437  2.406822103401071  8.066449381737437  56.555015838816374  10.424336575814884  0.5136697262093085  50.7785998337035  43.96367507174462  -33.78912688694597  24.84858422759603  0.000000
0.897  0.000000  0.000000  0.000000  -25.060248743398503  3.0281204092069487  8.34941898553855  56.72042424918347  11.159046536411958  0.9265900841685235  51.408686354136755  45.99656851432067  -35.82893673515985  24.696597940701484  0.000000
0.9359999999999999  0.000000  0.000000  0.000000  -25.114890832990962  3.6517694706717068  8.595803131468985  56.85772136424609  11.879106081712361  1.3933026576026095  51.842095018940874  47.93218923619362  -37.50697972901492  24.58367854357857  0.000000
0.975  0.000000  0.000000  0.000000  -25.230442249093215  4.255239884934532  8.79295095409206  56.96766080278791  12.582458496872324  1.9043126730655946  52.110435652935934  49.75384757623812  -38.858988993800935  24.527425276781077  0.000000
1.014  0.000000  0.000000  0.000000  -25.409401352351285  4.8307615807885815  8.941920195300543  57.04975804113533  13.268427669569851  2.448609295673198  52.24244668737878  51.45445990152277  -39.93588673691764  24.521025709103007  0.000000
1.053  0.000000  0.000000  0.000000  -25.63926134472993  5.373396191435383  9.062089120676855  57.1047898907815  13.944054169109144  3.003413515580707  52.26793676190857  53.036241874386384  -40.80407955929002  24.534023423917414  0.000000
1.092  0.000000  0.000000  0.000000  -25.905865245602993  5.88714497678148  9.175125335250163  57.132039585225264  14.607377037320393  3.5537953057123404  52.213006887054206  54.503854095181  -41.52784812838135  24.540050014515295  0.000000
1.131  0.000000  0.000000  0.000000  -26.203876325875132  6.376497090511515  9.299171811111336  57.126156488349174  15.258680060003183  4.089022281753624  52.11289952192211  55.85665177360295  -42.16951961916612  24.525416323133864  0.000000
1.17  0.000000  0.000000  0.000000  -26.538270007199795  6.846377067942937  9.441369370486527  57.08688281078356  15.896284363850608  4.610167259361495  52.000861303491725  57.08891538133704  -42.77470401947782  24.486569475722803  0.000000
1.209  0.000000  0.000000  0.000000  -26.918120624187846  7.302092113863842  9.605366394958452  57.01370077610575  16.519964683031684  5.125025332129581  51.90847172634864  58.19302679292344  -43.375970865824485  24.432570718766765  0.000000
1.248  0.000000  0.000000  0.000000  -27.3390627054981  7.7495829029915635  9.785227495939546  56.915243892369176  17.137620118298813  5.645465885419638  51.84175619127923  59.170646614926326  -43.971901718102956  24.359674796098776  0.000000
1.287  0.000000  0.000000  0.000000  -27.77836838895843  8.198820390928926  9.978847060833312  56.794897933794424  17.754134150768287  6.1867478665189175  51.78379988459703  60.027509990464246  -44.5302171733721  24.249919407239155  0.000000
1.326  0.000000  0.000000  0.000000  -28.197938464484626  8.65655666855554  10.185349605823621  56.662371364507685  18.37510915162282  6.753039553482077  51.69696375293042  60.77520562354863  -44.993073538719194  24.077331201529073  0.000000
1.365  0.000000  0.000000  0.000000  -28.567486028062035  9.1235916987203  10.41273374247089  56.52168639832054  18.98421856148788  7.342879169873363  51.556493472734935  61.42500768708791  -45.31844639492957  23.82710195680928  0.000000
1.404  0.000000  0.000000  0.000000  -28.879359679199766  9.585607247715531  10.656763752352251  56.3846929582491  19.56008718130665  7.935940109485751  51.35783002297892  61.99583270730336  -45.501112426566756  23.5178844267092  0.000000
1.443  0.000000  0.000000  0.000000  -29.153479231636965  10.011121191549451  10.91547780130138  56.257191529109264  20.078441068536346  8.501069366084064  51.135957019411315  62.49794685613118  -45.58679040830091  23.19774610938167  0.000000
1.482  0.000000  0.000000  0.000000  -29.414607596975568  10.370796586670783  11.169860259210802  56.149966690961385  20.51894069552532  8.99912534954228  50.92686702693734  62.952027768280246  -45.63140013808662  22.91646764104941  0.000000
1.521  0.000000  0.000000  0.000000  -29.67339021646991  10.644653905103569  11.408271679576345  56.06320933305301  20.884007394251174  9.408237775295694  50.76593771922351  63.349420785307274  -45.68551410721985  22.694276682818664  0.000000
